<mxfile host="app.diagrams.net" modified="2023-11-24T17:54:06.801Z" agent="Mozilla/5.0 (Windows NT 10.0; Win64; x64) AppleWebKit/537.36 (KHTML, like Gecko) Chrome/119.0.0.0 Safari/537.36 Edg/119.0.0.0" etag="ifORfXGXyblrQ7OOI8Np" version="22.1.3" type="github">
  <diagram name="Page-1" id="CuRZT8r3v5vZjnK-uch3">
    <mxGraphModel dx="192" dy="583" grid="1" gridSize="10" guides="1" tooltips="1" connect="1" arrows="1" fold="1" page="1" pageScale="1" pageWidth="850" pageHeight="1100" math="0" shadow="0">
      <root>
        <mxCell id="0" />
        <mxCell id="1" parent="0" />
        <mxCell id="jk8Hfy2277ZN6TrQz6BO-1" value="Safety" style="swimlane;fontStyle=0;childLayout=stackLayout;horizontal=1;startSize=26;fillColor=none;horizontalStack=0;resizeParent=1;resizeParentMax=0;resizeLast=0;collapsible=1;marginBottom=0;whiteSpace=wrap;html=1;" vertex="1" parent="1">
          <mxGeometry x="890.0000000000002" y="498" width="180" height="52" as="geometry" />
        </mxCell>
        <mxCell id="jk8Hfy2277ZN6TrQz6BO-2" value="xxx" style="text;strokeColor=none;fillColor=none;align=left;verticalAlign=top;spacingLeft=4;spacingRight=4;overflow=hidden;rotatable=0;points=[[0,0.5],[1,0.5]];portConstraint=eastwest;whiteSpace=wrap;html=1;" vertex="1" parent="jk8Hfy2277ZN6TrQz6BO-1">
          <mxGeometry y="26" width="180" height="26" as="geometry" />
        </mxCell>
        <mxCell id="jk8Hfy2277ZN6TrQz6BO-4" value="Tactics" style="swimlane;fontStyle=0;childLayout=stackLayout;horizontal=1;startSize=26;fillColor=none;horizontalStack=0;resizeParent=1;resizeParentMax=0;resizeLast=0;collapsible=1;marginBottom=0;whiteSpace=wrap;html=1;" vertex="1" parent="1">
          <mxGeometry x="1150.0000000000002" y="372" width="180" height="52" as="geometry" />
        </mxCell>
        <mxCell id="jk8Hfy2277ZN6TrQz6BO-5" value="xxx" style="text;strokeColor=none;fillColor=none;align=left;verticalAlign=top;spacingLeft=4;spacingRight=4;overflow=hidden;rotatable=0;points=[[0,0.5],[1,0.5]];portConstraint=eastwest;whiteSpace=wrap;html=1;" vertex="1" parent="jk8Hfy2277ZN6TrQz6BO-4">
          <mxGeometry y="26" width="180" height="26" as="geometry" />
        </mxCell>
        <mxCell id="jk8Hfy2277ZN6TrQz6BO-6" value="Unsafe State Detection" style="swimlane;fontStyle=0;childLayout=stackLayout;horizontal=1;startSize=26;fillColor=none;horizontalStack=0;resizeParent=1;resizeParentMax=0;resizeLast=0;collapsible=1;marginBottom=0;whiteSpace=wrap;html=1;" vertex="1" parent="1">
          <mxGeometry x="1430.0000000000002" y="190" width="180" height="52" as="geometry" />
        </mxCell>
        <mxCell id="jk8Hfy2277ZN6TrQz6BO-7" value="xxx" style="text;strokeColor=none;fillColor=none;align=left;verticalAlign=top;spacingLeft=4;spacingRight=4;overflow=hidden;rotatable=0;points=[[0,0.5],[1,0.5]];portConstraint=eastwest;whiteSpace=wrap;html=1;" vertex="1" parent="jk8Hfy2277ZN6TrQz6BO-6">
          <mxGeometry y="26" width="180" height="26" as="geometry" />
        </mxCell>
        <mxCell id="jk8Hfy2277ZN6TrQz6BO-8" value="Design Safety Patterns" style="swimlane;fontStyle=0;childLayout=stackLayout;horizontal=1;startSize=26;fillColor=none;horizontalStack=0;resizeParent=1;resizeParentMax=0;resizeLast=0;collapsible=1;marginBottom=0;whiteSpace=wrap;html=1;" vertex="1" parent="1">
          <mxGeometry x="1150.0000000000002" y="630" width="180" height="52" as="geometry" />
        </mxCell>
        <mxCell id="jk8Hfy2277ZN6TrQz6BO-9" value="xxx" style="text;strokeColor=none;fillColor=none;align=left;verticalAlign=top;spacingLeft=4;spacingRight=4;overflow=hidden;rotatable=0;points=[[0,0.5],[1,0.5]];portConstraint=eastwest;whiteSpace=wrap;html=1;" vertex="1" parent="jk8Hfy2277ZN6TrQz6BO-8">
          <mxGeometry y="26" width="180" height="26" as="geometry" />
        </mxCell>
        <mxCell id="jk8Hfy2277ZN6TrQz6BO-10" value="Unsafe State Avoidance" style="swimlane;fontStyle=0;childLayout=stackLayout;horizontal=1;startSize=26;fillColor=none;horizontalStack=0;resizeParent=1;resizeParentMax=0;resizeLast=0;collapsible=1;marginBottom=0;whiteSpace=wrap;html=1;" vertex="1" parent="1">
          <mxGeometry x="1430.0000000000002" y="280" width="180" height="52" as="geometry" />
        </mxCell>
        <mxCell id="jk8Hfy2277ZN6TrQz6BO-11" value="xxx" style="text;strokeColor=none;fillColor=none;align=left;verticalAlign=top;spacingLeft=4;spacingRight=4;overflow=hidden;rotatable=0;points=[[0,0.5],[1,0.5]];portConstraint=eastwest;whiteSpace=wrap;html=1;" vertex="1" parent="jk8Hfy2277ZN6TrQz6BO-10">
          <mxGeometry y="26" width="180" height="26" as="geometry" />
        </mxCell>
        <mxCell id="jk8Hfy2277ZN6TrQz6BO-12" value="Containment" style="swimlane;fontStyle=0;childLayout=stackLayout;horizontal=1;startSize=26;fillColor=none;horizontalStack=0;resizeParent=1;resizeParentMax=0;resizeLast=0;collapsible=1;marginBottom=0;whiteSpace=wrap;html=1;" vertex="1" parent="1">
          <mxGeometry x="1430.0000000000002" y="360" width="180" height="52" as="geometry" />
        </mxCell>
        <mxCell id="jk8Hfy2277ZN6TrQz6BO-13" value="xxx" style="text;strokeColor=none;fillColor=none;align=left;verticalAlign=top;spacingLeft=4;spacingRight=4;overflow=hidden;rotatable=0;points=[[0,0.5],[1,0.5]];portConstraint=eastwest;whiteSpace=wrap;html=1;" vertex="1" parent="jk8Hfy2277ZN6TrQz6BO-12">
          <mxGeometry y="26" width="180" height="26" as="geometry" />
        </mxCell>
        <mxCell id="jk8Hfy2277ZN6TrQz6BO-14" value="Recovery" style="swimlane;fontStyle=0;childLayout=stackLayout;horizontal=1;startSize=26;fillColor=none;horizontalStack=0;resizeParent=1;resizeParentMax=0;resizeLast=0;collapsible=1;marginBottom=0;whiteSpace=wrap;html=1;" vertex="1" parent="1">
          <mxGeometry x="1430.0000000000002" y="450" width="180" height="52" as="geometry" />
        </mxCell>
        <mxCell id="jk8Hfy2277ZN6TrQz6BO-15" value="xxx" style="text;strokeColor=none;fillColor=none;align=left;verticalAlign=top;spacingLeft=4;spacingRight=4;overflow=hidden;rotatable=0;points=[[0,0.5],[1,0.5]];portConstraint=eastwest;whiteSpace=wrap;html=1;" vertex="1" parent="jk8Hfy2277ZN6TrQz6BO-14">
          <mxGeometry y="26" width="180" height="26" as="geometry" />
        </mxCell>
        <mxCell id="jk8Hfy2277ZN6TrQz6BO-16" value="Redundant Sensors" style="swimlane;fontStyle=0;childLayout=stackLayout;horizontal=1;startSize=26;fillColor=none;horizontalStack=0;resizeParent=1;resizeParentMax=0;resizeLast=0;collapsible=1;marginBottom=0;whiteSpace=wrap;html=1;" vertex="1" parent="1">
          <mxGeometry x="1430.0000000000002" y="560" width="180" height="52" as="geometry" />
        </mxCell>
        <mxCell id="jk8Hfy2277ZN6TrQz6BO-17" value="xxx" style="text;strokeColor=none;fillColor=none;align=left;verticalAlign=top;spacingLeft=4;spacingRight=4;overflow=hidden;rotatable=0;points=[[0,0.5],[1,0.5]];portConstraint=eastwest;whiteSpace=wrap;html=1;" vertex="1" parent="jk8Hfy2277ZN6TrQz6BO-16">
          <mxGeometry y="26" width="180" height="26" as="geometry" />
        </mxCell>
        <mxCell id="jk8Hfy2277ZN6TrQz6BO-18" value="Monitor Actuator" style="swimlane;fontStyle=0;childLayout=stackLayout;horizontal=1;startSize=26;fillColor=none;horizontalStack=0;resizeParent=1;resizeParentMax=0;resizeLast=0;collapsible=1;marginBottom=0;whiteSpace=wrap;html=1;" vertex="1" parent="1">
          <mxGeometry x="1430" y="650" width="180" height="52" as="geometry" />
        </mxCell>
        <mxCell id="jk8Hfy2277ZN6TrQz6BO-19" value="xxx" style="text;strokeColor=none;fillColor=none;align=left;verticalAlign=top;spacingLeft=4;spacingRight=4;overflow=hidden;rotatable=0;points=[[0,0.5],[1,0.5]];portConstraint=eastwest;whiteSpace=wrap;html=1;" vertex="1" parent="jk8Hfy2277ZN6TrQz6BO-18">
          <mxGeometry y="26" width="180" height="26" as="geometry" />
        </mxCell>
        <mxCell id="jk8Hfy2277ZN6TrQz6BO-20" value="Separated Safety" style="swimlane;fontStyle=0;childLayout=stackLayout;horizontal=1;startSize=26;fillColor=none;horizontalStack=0;resizeParent=1;resizeParentMax=0;resizeLast=0;collapsible=1;marginBottom=0;whiteSpace=wrap;html=1;" vertex="1" parent="1">
          <mxGeometry x="1430.0000000000002" y="730" width="180" height="52" as="geometry" />
        </mxCell>
        <mxCell id="jk8Hfy2277ZN6TrQz6BO-21" value="xxx" style="text;strokeColor=none;fillColor=none;align=left;verticalAlign=top;spacingLeft=4;spacingRight=4;overflow=hidden;rotatable=0;points=[[0,0.5],[1,0.5]];portConstraint=eastwest;whiteSpace=wrap;html=1;" vertex="1" parent="jk8Hfy2277ZN6TrQz6BO-20">
          <mxGeometry y="26" width="180" height="26" as="geometry" />
        </mxCell>
        <mxCell id="jk8Hfy2277ZN6TrQz6BO-22" value="" style="endArrow=none;html=1;rounded=0;exitX=1;exitY=0.5;exitDx=0;exitDy=0;entryX=-0.002;entryY=0.062;entryDx=0;entryDy=0;entryPerimeter=0;" edge="1" parent="1" source="jk8Hfy2277ZN6TrQz6BO-1" target="jk8Hfy2277ZN6TrQz6BO-5">
          <mxGeometry width="50" height="50" relative="1" as="geometry">
            <mxPoint x="1080" y="530" as="sourcePoint" />
            <mxPoint x="1130" y="400" as="targetPoint" />
            <Array as="points">
              <mxPoint x="1130" y="524" />
              <mxPoint x="1130" y="400" />
            </Array>
          </mxGeometry>
        </mxCell>
        <mxCell id="jk8Hfy2277ZN6TrQz6BO-24" value="" style="endArrow=none;html=1;rounded=0;entryX=0;entryY=0.5;entryDx=0;entryDy=0;" edge="1" parent="1" target="jk8Hfy2277ZN6TrQz6BO-8">
          <mxGeometry width="50" height="50" relative="1" as="geometry">
            <mxPoint x="1130" y="520" as="sourcePoint" />
            <mxPoint x="1130" y="660" as="targetPoint" />
            <Array as="points">
              <mxPoint x="1130" y="656" />
            </Array>
          </mxGeometry>
        </mxCell>
        <mxCell id="jk8Hfy2277ZN6TrQz6BO-25" value="" style="endArrow=none;html=1;rounded=0;exitX=1;exitY=0.5;exitDx=0;exitDy=0;" edge="1" parent="1" source="jk8Hfy2277ZN6TrQz6BO-4">
          <mxGeometry width="50" height="50" relative="1" as="geometry">
            <mxPoint x="1360" y="400" as="sourcePoint" />
            <mxPoint x="1380" y="210" as="targetPoint" />
            <Array as="points">
              <mxPoint x="1380" y="398" />
            </Array>
          </mxGeometry>
        </mxCell>
        <mxCell id="jk8Hfy2277ZN6TrQz6BO-26" value="" style="endArrow=none;html=1;rounded=0;entryX=0;entryY=0.5;entryDx=0;entryDy=0;" edge="1" parent="1" target="jk8Hfy2277ZN6TrQz6BO-6">
          <mxGeometry width="50" height="50" relative="1" as="geometry">
            <mxPoint x="1380" y="216" as="sourcePoint" />
            <mxPoint x="1410" y="260" as="targetPoint" />
          </mxGeometry>
        </mxCell>
        <mxCell id="jk8Hfy2277ZN6TrQz6BO-27" value="" style="endArrow=none;html=1;rounded=0;entryX=0;entryY=0.5;entryDx=0;entryDy=0;" edge="1" parent="1" target="jk8Hfy2277ZN6TrQz6BO-10">
          <mxGeometry width="50" height="50" relative="1" as="geometry">
            <mxPoint x="1380" y="306" as="sourcePoint" />
            <mxPoint x="1460" y="350" as="targetPoint" />
          </mxGeometry>
        </mxCell>
        <mxCell id="jk8Hfy2277ZN6TrQz6BO-28" value="" style="endArrow=none;html=1;rounded=0;entryX=0;entryY=0.5;entryDx=0;entryDy=0;" edge="1" parent="1" target="jk8Hfy2277ZN6TrQz6BO-12">
          <mxGeometry width="50" height="50" relative="1" as="geometry">
            <mxPoint x="1380" y="386" as="sourcePoint" />
            <mxPoint x="1460" y="350" as="targetPoint" />
          </mxGeometry>
        </mxCell>
        <mxCell id="jk8Hfy2277ZN6TrQz6BO-31" value="" style="endArrow=none;html=1;rounded=0;exitX=0;exitY=0.5;exitDx=0;exitDy=0;" edge="1" parent="1" source="jk8Hfy2277ZN6TrQz6BO-14">
          <mxGeometry width="50" height="50" relative="1" as="geometry">
            <mxPoint x="1380" y="494" as="sourcePoint" />
            <mxPoint x="1380" y="394" as="targetPoint" />
            <Array as="points">
              <mxPoint x="1380" y="476" />
            </Array>
          </mxGeometry>
        </mxCell>
      </root>
    </mxGraphModel>
  </diagram>
</mxfile>
